Coordinates
version=1
nRows=65
nColumns=12
inDegrees=yes

Units are S.I. units (second, meters, Newtons, ...)
Angles are in degrees

endheader
time	SC_y	SC_z	SC_x	AC_y	AC_z	AC_x	GH_y	GH_z	GH_yy	EL_x	PS_y
       0.0              -57.03         -2.739          50.89          46.84         -12.41         -7.621          175.0           55.0         -157.7          65.17          75.22
   0.03102              -57.02         -2.738          50.88          46.85         -12.41         -7.619          175.0           55.0         -157.7          65.17          75.22
   0.06203              -57.02         -2.736          50.88          46.85         -12.41         -7.618          174.9          54.99         -157.7          65.16          75.22
   0.09305              -57.01         -2.734          50.87          46.85         -12.41         -7.615          174.9          54.98         -157.7          65.16          75.22
    0.1241              -57.01         -2.733          50.87          46.86         -12.41         -7.613          174.8          54.98         -157.7          65.15          75.22
    0.1551               -57.0         -2.731          50.87          46.86         -12.41         -7.611          174.7          54.97         -157.6          65.14          75.22
    0.1861              -56.99         -2.728          50.86          46.87         -12.42         -7.608          174.7          54.96         -157.6          65.13          75.22
    0.2171              -56.99         -2.726          50.85          46.87         -12.42         -7.606          174.6          54.95         -157.6          65.13          75.22
    0.2481              -56.98         -2.724          50.85          46.87         -12.42         -7.603          174.5          54.95         -157.6          65.12          75.21
    0.2792              -56.97         -2.721          50.84          46.88         -12.42           -7.6          174.5          54.94         -157.6          65.11          75.21
    0.3102              -56.96         -2.718          50.83          46.88         -12.42         -7.596          174.4          54.93         -157.6           65.1          75.21
    0.3412              -56.95         -2.715          50.83          46.89         -12.42         -7.593          174.3          54.92         -157.5          65.09          75.21
    0.3722              -56.94         -2.712          50.82           46.9         -12.42         -7.589          174.2           54.9         -157.5          65.08           75.2
    0.4032              -56.93         -2.709          50.81           46.9         -12.42         -7.585          174.1          54.89         -157.5          65.06           75.2
    0.4342              -56.92         -2.705           50.8          46.91         -12.42          -7.58          173.9          54.88         -157.5          65.05           75.2
    0.4653              -56.91         -2.701          50.79          46.92         -12.42         -7.575          173.8          54.86         -157.4          65.04           75.2
    0.4963              -56.89         -2.696          50.78          46.93         -12.42          -7.57          173.7          54.85         -157.4          65.02          75.19
    0.5273              -56.88         -2.691          50.77          46.94         -12.42         -7.564          173.5          54.83         -157.4           65.0          75.19
    0.5583              -56.86         -2.686          50.76          46.95         -12.42         -7.558          173.4          54.81         -157.3          64.98          75.19
    0.5893              -56.84          -2.68          50.74          46.96         -12.42         -7.551          173.2          54.79         -157.3          64.96          75.18
    0.6203              -56.82         -2.674          50.72          46.97         -12.42         -7.543          173.0          54.77         -157.3          64.94          75.18
    0.6514               -56.8         -2.667          50.71          46.99         -12.43         -7.535          172.8          54.74         -157.2          64.92          75.17
    0.6824              -56.77         -2.659          50.69           47.0         -12.43         -7.525          172.5          54.71         -157.2          64.89          75.17
    0.7134              -56.75         -2.651          50.67          47.02         -12.43         -7.515          172.3          54.68         -157.1          64.86          75.16
    0.7444              -56.72         -2.641          50.64          47.04         -12.43         -7.504          172.0          54.65         -157.0          64.82          75.15
    0.7754              -56.68          -2.63          50.62          47.06         -12.43         -7.491          171.6          54.61         -157.0          64.79          75.15
    0.8064              -56.64         -2.619          50.59          47.08         -12.43         -7.477          171.2          54.56         -156.9          64.74          75.14
    0.8375               -56.6         -2.605          50.55          47.11         -12.44         -7.461          170.8          54.52         -156.8           64.7          75.13
    0.8685              -56.55          -2.59          50.52          47.14         -12.44         -7.443          170.4          54.46         -156.7          64.64          75.12
    0.8995               -56.5         -2.573          50.47          47.17         -12.44         -7.422          169.8           54.4         -156.6          64.58           75.1
    0.9305              -56.44         -2.553          50.43          47.21         -12.44         -7.398          169.2          54.33         -156.4          64.51          75.09
    0.9615              -56.36         -2.531          50.37          47.25         -12.45         -7.371          168.5          54.25         -156.3          64.43          75.07
    0.9926              -56.28         -2.505          50.31           47.3         -12.45          -7.34          167.7          54.15         -156.1          64.34          75.06
     1.024              -56.18         -2.474          50.23          47.36         -12.46         -7.304          166.7          54.04         -155.9          64.23          75.03
     1.055              -56.07         -2.439          50.14          47.43         -12.46         -7.262          165.6          53.91         -155.7           64.1          75.01
     1.086              -55.94         -2.397          50.04          47.51         -12.47         -7.212          164.3          53.76         -155.4          63.96          74.98
     1.117              -55.78         -2.348          49.92          47.61         -12.48         -7.152          162.8          53.58         -155.0          63.78          74.94
     1.148              -55.59         -2.288          49.77          47.72         -12.49         -7.081          160.9          53.37         -154.6          63.57           74.9
     1.179              -55.36         -2.216          49.59          47.86          -12.5         -6.995          158.7          53.11         -154.1          63.31          74.85
      1.21              -55.08         -2.128          49.37          48.04         -12.52          -6.89          155.9          52.79         -153.5           63.0          74.79
     1.241              -54.74          -2.02           49.1          48.25         -12.53          -6.76          152.5           52.4         -152.8          62.62          74.71
     1.272              -54.31         -1.885          48.77          48.51         -12.56         -6.599          148.3          51.91         -151.9          62.13          74.61
     1.303              -53.77         -1.715          48.35          48.84         -12.59         -6.395          143.0          51.29         -150.7          61.53          74.49
     1.334              -53.08         -1.498          47.81          49.27         -12.62         -6.136          136.2          50.51         -149.3          60.76          74.33
     1.365              -52.19         -1.221          47.13          49.81         -12.67         -5.804          127.6          49.51         -147.4          59.77          74.14
     1.396              -51.06        -0.8656          46.24           50.5         -12.73         -5.378          116.4          48.22         -145.0          58.51          73.88
     1.427              -49.62        -0.4114          45.12          51.39         -12.81         -4.835          102.2          46.58         -141.9          56.89          73.55
     1.458               -47.8         0.1596          43.71           52.5          -12.9         -4.151           84.4          44.51         -138.0          54.86          73.15
     1.489              -45.58         0.8555          41.98          53.86         -13.02         -3.318          62.64          41.99         -133.3          52.39          72.65
      1.52              -43.01          1.662          39.98          55.44         -13.16         -2.353          37.43          39.07         -127.8          49.52          72.07
     1.551              -40.23          2.535          37.82          57.14         -13.31         -1.307          10.13          35.91         -121.9          46.42          71.44
     1.582              -37.45          3.409          35.66          58.85         -13.45        -0.2617         -17.18          32.75         -115.9          43.31          70.81
     1.613              -34.88          4.215          33.66          60.42         -13.59         0.7038         -42.39          29.83         -110.4          40.44          70.24
     1.644              -32.67          4.911          31.93          61.78         -13.71          1.537         -64.15          27.31         -105.7          37.97          69.74
     1.675              -30.85          5.482          30.52          62.89          -13.8           2.22          -82.0          25.24         -101.8          35.94          69.33
     1.706               -29.4          5.936          29.39          63.78         -13.88          2.764          -96.2           23.6         -98.75          34.32           69.0
     1.737              -28.27          6.292          28.51          64.47         -13.94           3.19         -107.3          22.31         -96.33          33.06          68.75
     1.768              -27.39          6.569          27.83          65.01         -13.99          3.521         -116.0          21.31         -94.45          32.07          68.55
     1.799               -26.7          6.786          27.29          65.44         -14.02           3.78         -122.7          20.52         -92.98           31.3          68.39
      1.83              -26.16          6.956          26.87          65.77         -14.05          3.984         -128.1          19.91         -91.82           30.7          68.27
     1.861              -25.73          7.091          26.53          66.03         -14.08          4.146         -132.3          19.42          -90.9          30.22          68.17
     1.892              -25.38          7.199          26.27          66.24         -14.09          4.276         -135.7          19.02         -90.16          29.83           68.1
     1.923               -25.1          7.287          26.05          66.42         -14.11          4.381         -138.4          18.71         -89.57          29.52          68.03
     1.954              -24.87          7.359          25.87          66.56         -14.12          4.467         -140.7          18.45         -89.08          29.26          67.98
     1.985              -24.68          7.419          25.72          66.67         -14.13          4.538         -142.5          18.23         -88.68          29.05          67.94
